<svg version="1.1" xmlns="http://www.w3.org/2000/svg" xmlns:xlink="http://www.w3.org/1999/xlink" class="spritemapSVG" style="display:none"><symbol viewBox="0 0 8 16" id="icon-fb-logo"><title>fb-logo</title> <path d="M2.058,16V8.492H0.016V5.789h2.042c0,0,0-1.107,0-2.31C2.058,1.666,3.265,0,6.045,0
	c1.126,0,1.957,0.104,1.957,0.104L7.936,2.63c0,0-0.847-0.009-1.773-0.009c-1.003,0-1.164,0.448-1.164,1.194
	c0,0.589,0-1.255,0,1.974h3.018L7.885,8.492H4.998V16H2.058z"/> </symbol><symbol viewBox="0 0 23 32" id="icon-ipad"><title>ipad</title> <g> <path d="M21.5,0H1.5C0.7,0,0,0.7,0,1.5v29C0,31.3,0.7,32,1.5,32h20.1c0.8,0,1.5-0.7,1.5-1.5v-29C23,0.7,22.3,0,21.5,0z M11.5,31
		c-0.4,0-0.7-0.3-0.7-0.7c0-0.4,0.3-0.7,0.7-0.7c0.4,0,0.7,0.3,0.7,0.7C12.2,30.7,11.9,31,11.5,31z M20.8,28.6H2.2v-26h18.6V28.6z"/> </g> </symbol><symbol viewBox="0 0 32 28" id="icon-rotate"><title>rotate</title> <g> <path d="M13.9,0c7.6,0,13.7,6.1,13.9,13.7H32l-6.3,7l-6.3-7h4.9C24.2,8,19.6,3.5,13.9,3.5C8.1,3.5,3.5,8.2,3.5,14
		c0,5.8,4.7,10.5,10.4,10.5c2.3,0,4.4-0.8,6.2-2l2.4,2.6c-2.4,1.9-5.3,3-8.6,3C6.2,28,0,21.7,0,14C0,6.3,6.2,0,13.9,0L13.9,0z"/> </g> </symbol><symbol viewBox="0 0 20 16" id="icon-twitter-logo"><title>twitter-logo</title> <path d="M20,1.895c-0.736,0.321-1.527,0.538-2.356,0.635c0.846-0.499,1.498-1.291,1.803-2.234
	c-0.792,0.463-1.67,0.8-2.604,0.981C16.092,0.493,15.026,0,13.847,0c-2.267,0-4.104,1.809-4.104,4.04
	c0,0.316,0.036,0.625,0.106,0.921C6.441,4.792,3.417,3.185,1.394,0.74C1.039,1.337,0.838,2.03,0.838,2.77
	c0,1.401,0.724,2.64,1.825,3.363C1.99,6.112,1.356,5.93,0.804,5.628c0,0.016,0,0.032,0,0.05c0,1.958,1.415,3.591,3.292,3.96
	C3.75,9.73,3.389,9.779,3.014,9.779c-0.265,0-0.521-0.023-0.771-0.072c0.52,1.605,2.036,2.773,3.832,2.807
	c-1.403,1.082-3.173,1.729-5.096,1.729c-0.332,0-0.658-0.02-0.979-0.057C1.817,15.33,3.973,16,6.289,16
	c7.55,0,11.676-6.154,11.676-11.492c0-0.176-0.004-0.349-0.012-0.523C18.754,3.416,19.45,2.706,20,1.895z"/> </symbol></svg>